<svg width="152" height="30" viewBox="0 0 152 30" fill="none" xmlns="http://www.w3.org/2000/svg">
<path fill-rule="evenodd" clip-rule="evenodd" d="M27.8333 15C27.8333 22.0877 22.0877 27.8333 15 27.8333C7.91234 27.8333 2.16666 22.0877 2.16666 15C2.16666 7.9123 7.91234 2.16666 15 2.16666C22.0877 2.16666 27.8333 7.9123 27.8333 15ZM30 15C30 23.2843 23.2843 30 15 30C6.71573 30 0 23.2843 0 15C0 6.71573 6.71573 0 15 0C23.2843 0 30 6.71573 30 15ZM23.2759 8.2759C23.2759 9.1329 22.5812 9.8276 21.7242 9.8276C20.8672 9.8276 20.1725 9.1329 20.1725 8.2759C20.1725 7.4189 20.8672 6.72418 21.7242 6.72418C22.5812 6.72418 23.2759 7.4189 23.2759 8.2759ZM10.4879 16.209C11.1556 18.7009 13.717 20.1797 16.2089 19.512C18.7008 18.8443 20.1796 16.2829 19.5119 13.791C18.8442 11.2991 16.2828 9.8203 13.7909 10.488C11.299 11.1557 9.82015 13.7171 10.4879 16.209ZM8.39503 16.7698C9.37244 20.4175 13.1219 22.5823 16.7696 21.6049C20.4174 20.6274 22.5821 16.878 21.6047 13.2302C20.6273 9.5825 16.8779 7.4177 13.2301 8.3952C9.58236 9.3726 7.41762 13.122 8.39503 16.7698Z" fill="url(#paint0_linear_1_9)"/>
<path d="M47.0256 24H40.5803V5.81818H47.0788C48.9077 5.81818 50.482 6.18217 51.8018 6.91016C53.1217 7.63222 54.1367 8.67093 54.8469 10.0263C55.5631 11.3816 55.9212 13.0033 55.9212 14.8913C55.9212 16.7853 55.5631 18.4129 54.8469 19.7741C54.1367 21.1354 53.1158 22.18 51.7841 22.908C50.4583 23.636 48.8722 24 47.0256 24ZM44.4244 20.7063H46.8658C48.0021 20.7063 48.958 20.5051 49.7333 20.1026C50.5146 19.6942 51.1005 19.0639 51.4911 18.2116C51.8877 17.3535 52.0859 16.2467 52.0859 14.8913C52.0859 13.5478 51.8877 12.4499 51.4911 11.5977C51.1005 10.7454 50.5175 10.118 49.7422 9.71555C48.9669 9.31309 48.011 9.11186 46.8746 9.11186H44.4244V20.7063ZM65.4122 24.2663C64.0095 24.2663 62.8021 23.9822 61.79 23.4141C60.7839 22.84 60.0086 22.0291 59.464 20.9815C58.9195 19.928 58.6473 18.6822 58.6473 17.244C58.6473 15.8413 58.9195 14.6102 59.464 13.5508C60.0086 12.4914 60.775 11.6657 61.7634 11.0739C62.7577 10.482 63.9237 10.1861 65.2613 10.1861C66.1609 10.1861 66.9984 10.3311 67.7737 10.6211C68.555 10.9052 69.2356 11.3343 69.8156 11.9084C70.4015 12.4825 70.8573 13.2045 71.1828 14.0746C71.5083 14.9387 71.6711 15.9508 71.6711 17.1108V18.1495H60.1565V15.8058H68.1111C68.1111 15.2612 67.9927 14.7789 67.7559 14.3587C67.5192 13.9384 67.1907 13.61 66.7705 13.3732C66.3562 13.1306 65.8738 13.0092 65.3234 13.0092C64.7493 13.0092 64.2403 13.1424 63.7964 13.4087C63.3585 13.6692 63.0152 14.0213 62.7666 14.4652C62.518 14.9032 62.3908 15.3915 62.3849 15.93V18.1584C62.3849 18.8331 62.5091 19.4161 62.7577 19.9073C63.0122 20.3986 63.3703 20.7773 63.8319 21.0437C64.2936 21.31 64.8411 21.4432 65.4743 21.4432C65.8946 21.4432 66.2793 21.384 66.6285 21.2656C66.9777 21.1473 67.2765 20.9697 67.5251 20.733C67.7737 20.4962 67.9631 20.2062 68.0933 19.8629L71.5912 20.0938C71.4136 20.9342 71.0496 21.6681 70.4992 22.2955C69.9547 22.9169 69.2504 23.4022 68.3863 23.7514C67.5281 24.0947 66.5367 24.2663 65.4122 24.2663ZM86.986 10.3636L82.2186 24H77.9572L73.1898 10.3636H77.1848L80.0169 20.1204H80.1589L82.9821 10.3636H86.986ZM95.1254 29.3977C93.9002 29.3977 92.8497 29.229 91.9737 28.8917C91.1037 28.5603 90.4112 28.1075 89.8963 27.5334C89.3814 26.9593 89.047 26.3142 88.8931 25.598L92.391 25.1275C92.4975 25.3997 92.6662 25.6542 92.897 25.891C93.1278 26.1277 93.4326 26.3171 93.8114 26.4592C94.1961 26.6071 94.6637 26.6811 95.2141 26.6811C96.0368 26.6811 96.7145 26.4799 97.2472 26.0774C97.7857 25.6809 98.055 25.015 98.055 24.0799V21.5852H97.8952C97.7295 21.964 97.4809 22.3221 97.1495 22.6594C96.8181 22.9968 96.3919 23.272 95.8711 23.4851C95.3503 23.6982 94.7288 23.8047 94.0067 23.8047C92.9828 23.8047 92.0507 23.5679 91.2102 23.0945C90.3757 22.6151 89.7099 21.8841 89.2127 20.9016C88.7215 19.9132 88.4759 18.6644 88.4759 17.1552C88.4759 15.6104 88.7274 14.3202 89.2305 13.2844C89.7335 12.2487 90.4023 11.4734 91.2369 10.9585C92.0773 10.4435 92.9976 10.1861 93.9979 10.1861C94.7614 10.1861 95.4006 10.3163 95.9155 10.5767C96.4304 10.8312 96.8447 11.1508 97.1584 11.5355C97.478 11.9143 97.7236 12.2872 97.8952 12.6541H98.0373V10.3636H101.793V24.1332C101.793 25.2932 101.509 26.2638 100.94 27.0451C100.372 27.8263 99.585 28.4123 98.5788 28.8029C97.5786 29.1995 96.4274 29.3977 95.1254 29.3977ZM95.2053 20.9638C95.8149 20.9638 96.3298 20.8129 96.75 20.511C97.1761 20.2032 97.5017 19.7653 97.7266 19.1971C97.9574 18.623 98.0728 17.9364 98.0728 17.1374C98.0728 16.3384 97.9603 15.646 97.7354 15.06C97.5105 14.4682 97.185 14.0095 96.7589 13.6839C96.3327 13.3584 95.8149 13.1957 95.2053 13.1957C94.5838 13.1957 94.06 13.3643 93.6339 13.7017C93.2077 14.0331 92.8852 14.4948 92.6662 15.0866C92.4472 15.6785 92.3377 16.3621 92.3377 17.1374C92.3377 17.9246 92.4472 18.6052 92.6662 19.1793C92.8911 19.7475 93.2137 20.1884 93.6339 20.5021C94.06 20.8099 94.5838 20.9638 95.2053 20.9638ZM105.302 24V10.3636H108.969V12.7429H109.111C109.359 11.8965 109.777 11.2573 110.363 10.8253C110.949 10.3873 111.623 10.1683 112.387 10.1683C112.576 10.1683 112.78 10.1802 112.999 10.2038C113.218 10.2275 113.411 10.2601 113.576 10.3015V13.6573C113.399 13.604 113.153 13.5567 112.839 13.5153C112.526 13.4738 112.239 13.4531 111.978 13.4531C111.422 13.4531 110.925 13.5745 110.487 13.8171C110.055 14.0539 109.712 14.3853 109.457 14.8114C109.208 15.2376 109.084 15.7288 109.084 16.2852V24H105.302ZM119.53 24.2575C118.66 24.2575 117.884 24.1065 117.204 23.8047C116.523 23.4969 115.984 23.0442 115.588 22.4464C115.197 21.8427 115.002 21.091 115.002 20.1914C115.002 19.4338 115.141 18.7976 115.419 18.2827C115.697 17.7678 116.076 17.3535 116.555 17.0398C117.035 16.7261 117.579 16.4893 118.189 16.3295C118.805 16.1697 119.45 16.0573 120.124 15.9922C120.917 15.9093 121.557 15.8324 122.042 15.7614C122.527 15.6844 122.879 15.572 123.098 15.424C123.317 15.276 123.427 15.0571 123.427 14.767V14.7138C123.427 14.1515 123.249 13.7165 122.894 13.4087C122.545 13.101 122.048 12.9471 121.403 12.9471C120.722 12.9471 120.181 13.098 119.778 13.3999C119.376 13.6958 119.109 14.0687 118.979 14.5185L115.481 14.2344C115.659 13.4058 116.008 12.6896 116.529 12.0859C117.05 11.4763 117.721 11.0088 118.544 10.6832C119.373 10.3518 120.332 10.1861 121.421 10.1861C122.178 10.1861 122.903 10.2749 123.596 10.4524C124.294 10.63 124.912 10.9052 125.451 11.2781C125.996 11.6509 126.425 12.1303 126.738 12.7163C127.052 13.2963 127.209 13.9917 127.209 14.8026V24H123.622V22.109H123.516C123.297 22.5352 123.004 22.911 122.637 23.2365C122.27 23.5561 121.829 23.8076 121.314 23.9911C120.799 24.1687 120.204 24.2575 119.53 24.2575ZM120.613 21.6474C121.169 21.6474 121.66 21.5379 122.086 21.3189C122.513 21.094 122.847 20.7921 123.09 20.4134C123.332 20.0346 123.454 19.6055 123.454 19.1261V17.679C123.335 17.7559 123.172 17.8269 122.965 17.892C122.764 17.9512 122.536 18.0075 122.282 18.0607C122.027 18.1081 121.773 18.1525 121.518 18.1939C121.264 18.2294 121.033 18.262 120.826 18.2915C120.382 18.3567 119.994 18.4602 119.663 18.6023C119.331 18.7443 119.074 18.9367 118.89 19.1793C118.707 19.4161 118.615 19.712 118.615 20.0671C118.615 20.582 118.802 20.9756 119.174 21.2479C119.553 21.5142 120.033 21.6474 120.613 21.6474ZM130.643 24V10.3636H134.247V12.7695H134.407C134.691 11.9705 135.165 11.3402 135.828 10.8786C136.491 10.4169 137.284 10.1861 138.207 10.1861C139.142 10.1861 139.938 10.4199 140.595 10.8874C141.252 11.3491 141.69 11.9764 141.909 12.7695H142.051C142.329 11.9883 142.832 11.3639 143.56 10.8963C144.294 10.4228 145.161 10.1861 146.161 10.1861C147.434 10.1861 148.467 10.5915 149.26 11.4023C150.059 12.2073 150.458 13.3495 150.458 14.8292V24H146.685V15.5749C146.685 14.8174 146.484 14.2492 146.082 13.8704C145.679 13.4916 145.176 13.3022 144.572 13.3022C143.886 13.3022 143.35 13.5212 142.965 13.9592C142.581 14.3912 142.388 14.9624 142.388 15.6726V24H138.722V15.495C138.722 14.8262 138.53 14.2936 138.145 13.897C137.766 13.5005 137.266 13.3022 136.644 13.3022C136.224 13.3022 135.845 13.4087 135.508 13.6218C135.177 13.829 134.913 14.1219 134.718 14.5007C134.523 14.8736 134.425 15.3116 134.425 15.8146V24H130.643Z" fill="white"/>
<defs>
<linearGradient id="paint0_linear_1_9" x1="15" y1="0" x2="15" y2="30" gradientUnits="userSpaceOnUse">
<stop stop-color="#877EFF"/>
<stop offset="0.461458" stop-color="#685DFF"/>
<stop offset="1" stop-color="#3121FF"/>
</linearGradient>
</defs>
</svg>
